# xmcd CD database file
#
# Track frame offsets:
#	150
#	17826
#	27751
#	39123
#	51370
#	62590
#	74113
#	88632
#	104199
#	120108
#	134644
#	148246
#	173159
#	199408
#	211592
#	224507
#	249117
#	264798
#
# Disc length: 3741 seconds
#
# Revision: 0
# Processed by: cddbd v1.5.2PL0 Copyright (c) Steve Scherf et al.
# Submitted via: CDex 1.51
#
DISCID=0a0e9b12
DTITLE=Nina Simone - Essential Early Recordings CD 2/2
DYEAR=2010
DGENRE=Jazz
TTITLE0=It Might As Well Be Spring
TTITLE1=You've Been Gone Too Long
TTITLE2=That's Him Over There
TTITLE3=Chilly Winds Don't Blow
TTITLE4=Theme From 'Middle Of The Night'
TTITLE5=Can't Get Out Of This Mood
TTITLE6=Willow Weep For Me
TTITLE7=Solitaire
TTITLE8=Black Is The Colour Of My True Love's Hair
TTITLE9=Exactly Like You
TTITLE10=The Other Woman
TTITLE11=Under The Lowest
TTITLE12=I Don't Want Him (Anymore)
TTITLE13=Summertime
TTITLE14=Cotton Eyed Joe
TTITLE15=Return Home
TTITLE16=Wild Is The Wind
TTITLE17=Fine And Mellow
EXTD=YEAR: 2010
EXTT0=
EXTT1=
EXTT2=
EXTT3=
EXTT4=
EXTT5=
EXTT6=
EXTT7=
EXTT8=
EXTT9=
EXTT10=
EXTT11=
EXTT12=
EXTT13=
EXTT14=
EXTT15=
EXTT16=
EXTT17=
PLAYORDER=
